GRF
version=1
nRows=21
nColumns=28
inDegrees=no
endheader
time	left_ground_force_vx	left_ground_force_vy	left_ground_force_vz	left_ground_force_px	left_ground_force_py	left_ground_force_pz	left_ground_torque_x	left_ground_torque_y	left_ground_torque_z	right_ground_force_vx	right_ground_force_vy	right_ground_force_vz	right_ground_force_px	right_ground_force_py	right_ground_force_pz	right_ground_torque_x	right_ground_torque_y	right_ground_torque_z
      1.01000000	     11.81074906	    479.17224575	     36.48964761	     -0.45197220	      0.00000000	     -0.27783532	      0.00000000	     -2.80269790	     -0.00000000	     -0.00000187	      0.00002349	      0.00000155	      0.01955018	      0.00000000	     -0.18924062	      0.00000000	     -0.00000001	     -0.00000000	     -1.15518249	     -0.67513628	     -0.75110276	   3942.35989533	      0.00000000	   -616.97514417	      0.00000000	  -2702.63171138	     -0.00000000
      1.02000000	     14.40163683	    498.43027108	     37.29870432	     -0.45153372	      0.00000000	     -0.27757507	      0.00000000	     -2.97989619	     -0.00000000	     -0.00000946	      0.00012233	      0.00000810	      0.01955018	      0.00000000	     -0.18924062	      0.00000000	     -0.00000003	     -0.00000000	     -0.06397085	      3.25197203	     -0.40190420	    136.82168130	      0.00000000	   -354.87072058	      0.00000000	    813.60116865	      0.00000000
      1.03000000	     17.02484737	    517.51767823	     37.91115073	     -0.45107032	      0.00000000	     -0.27727496	      0.00000000	     -3.16524517	     -0.00000000	     -0.00004340	      0.00057915	      0.00003838	      0.01955021	      0.00000000	     -0.18924064	      0.00000000	     -0.00000015	     -0.00000000	     -0.29049165	     -2.36965850	      0.56938371	   1758.03086910	      0.00000000	   -257.83497913	      0.00000000	    532.65897601	      0.00000000
      1.04000000	     19.77535728	    535.90442456	     38.26633794	     -0.45057419	      0.00000000	     -0.27692891	      0.00000000	     -3.35643223	     -0.00000000	     -0.00018089	      0.00249305	      0.00016555	      0.01955033	      0.00000000	     -0.18924072	      0.00000000	     -0.00000064	     -0.00000000	     -0.75256755	      1.27840089	      0.20397753	   -762.75164045	     -0.00000000	    109.13977583	      0.00000000	   -449.95759328	     -0.00000000
      1.05000000	     22.77107321	    553.04762689	     38.31020881	     -0.45003608	      0.00000000	     -0.27653648	      0.00000000	     -3.55111309	     -0.00000000	     -0.00068596	      0.00976309	      0.00065026	      0.01955077	      0.00000000	     -0.18924102	      0.00000000	     -0.00000250	     -0.00000000	     -0.33356861	     -3.52673396	     -0.11414469	   1543.52316771	      0.00000000	   -296.14802277	      0.00000000	   -713.26737357	     -0.00000000
      1.06000000	     26.12966882	    568.44527283	     38.01102723	     -0.44944533	      0.00000000	     -0.27610274	      0.00000000	     -3.74618687	     -0.00000000	     -0.00236971	      0.03480341	      0.00232715	      0.01955233	      0.00000000	     -0.18924206	      0.00000000	     -0.00000861	     -0.00000000	      1.01213797	      0.57705662	      0.49868254	  -3624.92408571	     -0.00000000	     16.82372513	      0.00000000	  -2790.13552535	     -0.00000000
      1.07000000	     29.94523563	    581.67584485	     37.37226659	     -0.44879074	      0.00000000	     -0.27563698	      0.00000000	     -3.93708709	     -0.00000000	     -0.00747056	      0.11301640	      0.00759233	      0.01955725	      0.00000000	     -0.18924529	      0.00000000	     -0.00002627	     -0.00000000	     -0.84233383	      0.58963388	     -2.06506345	  -3522.28103081	      0.00000000	   -703.74082610	      0.00000000	   8447.70537659	      0.00000000
      1.08000000	     34.27025423	    592.41221835	     36.43553116	     -0.44806280	      0.00000000	     -0.27515055	      0.00000000	     -4.11746331	     -0.00000000	     -0.02154046	      0.33458726	      0.02259408	      0.01957133	      0.00000000	     -0.18925444	      0.00000000	     -0.00007047	     -0.00000000	      0.06017120	     10.03403845	     -0.71580671	    496.06237403	      0.00000000	   -250.19080580	      0.00000000	    231.51790277	      0.00000000
      1.09000000	     39.10635625	    600.40722187	     35.26890242	     -0.44725658	      0.00000000	     -0.27465447	      0.00000000	     -4.27934257	     -0.00000000	     -0.05697015	      0.90398118	      0.06136891	      0.01960793	      0.00000000	     -0.18927788	      0.00000000	     -0.00016407	     -0.00000000	     -0.27464904	      2.81238381	     -0.93509471	   -236.62147643	      0.00000000	   -315.40544499	      0.00000000	   1224.11610375	      0.00000000
      1.10000000	     44.40395152	    605.45815662	     33.94309597	     -0.44637451	      0.00000000	     -0.27415706	      0.00000000	     -4.41373377	     -0.00000000	     -0.13870173	      2.23158655	      0.15223489	      0.01969432	      0.00000000	     -0.18933224	      0.00000000	     -0.00032298	     -0.00000000	      0.10850605	     -1.36476391	     -1.45455096	   2376.38942344	     -0.00000000	    320.66093378	      0.00000000	  -1560.01454269	     -0.00000000
      1.11000000	     50.06782289	    607.36413535	     32.50524727	     -0.44542791	      0.00000000	     -0.27366235	      0.00000000	     -4.51164434	     -0.00000000	     -0.31219296	      5.04088717	      0.34512902	      0.01987974	      0.00000000	     -0.18944637	      0.00000000	     -0.00050518	     -0.00000000	     -0.04175450	      5.27404156	     -0.19527068	    220.49657111	      0.00000000	   -254.23150670	      0.00000000	     16.80150571	      0.00000000
      1.12000000	     55.96462488	    605.89050358	     30.96259506	     -0.44443657	      0.00000000	     -0.27316934	      0.00000000	     -4.56538092	     -0.00000000	     -0.65284429	     10.43798935	      0.71556948	      0.02024214	      0.00000000	     -0.18966309	      0.00000000	     -0.00050266	     -0.00000000	      0.47264231	     -1.66398153	     -1.73110776	   2286.47218720	      0.00000000	   -106.52957462	      0.00000000	  -2473.61358122	     -0.00000000
      1.13000000	     61.92884155	    600.74887753	     29.28359968	     -0.44342589	      0.00000000	     -0.27267263	      0.00000000	     -4.56973780	     -0.00000000	     -1.27510043	     19.85660037	      1.35781060	      0.02088842	      0.00000000	     -0.19003504	      0.00000000	      0.00021327	      0.00000000	      0.67994837	      0.48625049	     -1.40906349	  -4074.55001397	      0.00000000	  -1157.76884944	      0.00000000	   7510.18463850	      0.00000000
      1.14000000	     67.76517105	    591.59297982	     27.41512811	     -0.44242214	      0.00000000	     -0.27216417	      0.00000000	     -4.52250133	     -0.00000000	     -2.33836799	     34.79920317	      2.35977150	      0.02194301	      0.00000000	     -0.19061101	      0.00000000	      0.00261185	      0.00000000	      1.31317682	     -7.37396465	     -0.07208118	   1122.01707014	      0.00000000	   -247.09626490	      0.00000000	   -114.95345903	     -0.00000000
      1.15000000	     73.24671837	    578.02502150	     25.30700162	     -0.44144704	      0.00000000	     -0.27163616	      0.00000000	     -4.42394263	     -0.00000000	     -4.04539602	     56.37832246	      3.75907098	      0.02352385	      0.00000000	     -0.19141358	      0.00000000	      0.00803186	      0.00000000	      1.01897994	      4.26545413	     -2.60694977	    180.53367951	      0.00000000	   -448.17955786	      0.00000000	   2356.95752430	      0.00000000
      1.16000000	     78.10983623	    559.60899439	     22.93350121	     -0.44051339	      0.00000000	     -0.27108406	      0.00000000	     -4.27559850	     -0.00000000	     -6.62682945	     84.80498989	      5.49300237	      0.02571231	      0.00000000	     -0.19241541	      0.00000000	      0.01777928	      0.00000000	     -0.41308400	      2.75751168	     -1.62943564	    -29.88409789	      0.00000000	   -422.40409625	      0.00000000	   1692.90824167	      0.00000000
      1.17000000	     82.04849299	    535.89544008	     20.30529605	     -0.43962272	      0.00000000	     -0.27050907	      0.00000000	     -4.07917449	     -0.00000000	    -10.30527581	    119.08649853	      7.36848818	      0.02852976	      0.00000000	     -0.19352669	      0.00000000	      0.03244832	      0.00000000	      1.07996550	     -8.57877661	     -0.62434929	    995.98454301	      0.00000000	   -224.56984706	      0.00000000	   -251.38584192	     -0.00000000
      1.18000000	     84.71392179	    506.47170349	     17.47135262	     -0.43876509	      0.00000000	     -0.26991912	      0.00000000	     -3.83634307	     -0.00000000	    -15.23751441	    157.16773190	      9.07903138	      0.03193209	      0.00000000	     -0.19460534	      0.00000000	      0.05134182	      0.00000000	     -0.39945488	     -7.67749781	     -1.30902641	   1021.67295230	      0.00000000	   -251.03327039	      0.00000000	   -143.71168565	     -0.00000000
      1.19000000	     85.72834781	    471.05502228	     14.51468282	     -0.43791960	      0.00000000	     -0.26932789	      0.00000000	     -3.54954302	     -0.00000000	    -21.44635535	    196.54283020	     10.27701773	      0.03582397	      0.00000000	     -0.19549145	      0.00000000	      0.07255449	      0.00000000	      1.55543699	     -3.85993940	     -0.02073295	   1267.01486021	      0.00000000	   -195.91658163	      0.00000000	   -632.53266497	     -0.00000000
      1.20000000	     84.72286258	    429.63737274	     11.54597077	     -0.43705466	      0.00000000	     -0.26875213	      0.00000000	     -3.22316259	     -0.00000000	    -28.76808120	    235.08503529	     10.67839433	      0.04008299	      0.00000000	     -0.19605405	      0.00000000	      0.09402944	      0.00000000	      0.46464012	    -10.91164676	      1.21679390	    933.68505485	      0.00000000	   -212.79663049	      0.00000000	     84.12572133	      0.00000000
      1.21000000	     81.40594078	    382.66896995	      8.69577615	     -0.43612896	      0.00000000	     -0.26820776	      0.00000000	     -2.86431628	     -0.00000000	    -36.84435081	    271.68701129	     10.15318108	      0.04457958	      0.00000000	     -0.19623002	      0.00000000	      0.11520389	      0.00000000	      0.84662426	     -4.30474535	     -0.19466130	   1088.98343193	      0.00000000	   -229.34564804	      0.00000000	   -647.01784100	     -0.00000000
